<?xml version="1.0" standalone="no"?><svg xmlns="http://www.w3.org/2000/svg" viewBox="0 0 1440 320"><path fill="#0099ff" fill-opacity="1" d="M0,96L30,101.3C60,107,120,117,180,133.3C240,149,300,171,360,165.3C420,160,480,128,540,117.3C600,107,660,117,720,133.3C780,149,840,171,900,197.3C960,224,1020,256,1080,240C1140,224,1200,160,1260,117.3C1320,75,1380,53,1410,42.7L1440,32L1440,320L1410,320C1380,320,1320,320,1260,320C1200,320,1140,320,1080,320C1020,320,960,320,900,320C840,320,780,320,720,320C660,320,600,320,540,320C480,320,420,320,360,320C300,320,240,320,180,320C120,320,60,320,30,320L0,320Z"></path></svg>